<svg xmlns="http://www.w3.org/2000/svg" viewBox="0 0 64 64">
  <defs>
    <radialGradient id="b" cx="50%" cy="42%" r="70%">
      <stop offset="0%" stop-color="#123a2c"/>
      <stop offset="100%" stop-color="#06120d"/>
    </radialGradient>
    <linearGradient id="g" x1="0" y1="0" x2="1" y2="1">
      <stop offset="0%" stop-color="#fff3cf"/>
      <stop offset="50%" stop-color="#f6d488"/>
      <stop offset="100%" stop-color="#b07d2c"/>
    </linearGradient>
  </defs>
  <rect width="64" height="64" rx="14" fill="url(#b)"/>
  <circle cx="32" cy="27" r="6.5" fill="#f6d488"/>
  <g fill="none" stroke="url(#g)" stroke-width="2" stroke-linecap="round">
    <path d="M32 46 C 31 38 31 34 32 31"/>
    <path d="M32 31 C 25 27 20 27 15 30 M32 31 C 28 25 24 23 19 23 M32 31 C 31 25 30 22 32 18"/>
    <path d="M32 31 C 39 27 44 27 49 30 M32 31 C 36 25 40 23 45 23 M32 31 C 33 24 35 21 39 18"/>
  </g>
</svg>
